PathFileType  4	(X/Y/Z) C:\Users\antoi\Documents\MyRepositories\mobilecap\ResultsAnalysis
DataRate	CameraRate	NumFrames	NumMarkers	Units	OrigDataRate	OrigDataStartFrame	OrigNumFrames
100.0	100.0	4	51	mm	100.0	155	247
Frame#	Time	r_knee			r_shank_antsup			r_ankle			r_calc			r_5meta			r_toe			L_knee			L_shank_antsup			L_ankle			L_calc			L_5meta			L_toe			r_sh2			r_sh3			r_sh4			L_sh2			L_sh3			r_thigh1			r_thigh2			r_thigh3			r_thigh4			r_thigh5			L_thigh1			L_thigh2			L_thigh3			L_thigh4			r.ASIS			r.PSIS			L.ASIS			L.PSIS			C7			R_Shoulder			L_Shoulder			R_Sternum			L_Sternum			R_humerus			R_elbow_med			R_elbow_lat			R_forearm			R_wrist_radius			R_wrist_ulna			L_humerus			L_elbow_med			L_elbow_lat			L_forearm			L_wrist_radius			L_wrist_ulna			R_HJC			L_HJC			R_HJC_reg			L_HJC_reg			
		X1	Y1	Z1	X2	Y2	Z2	X3	Y3	Z3	X4	Y4	Z4	X5	Y5	Z5	X6	Y6	Z6	X7	Y7	Z7	X8	Y8	Z8	X9	Y9	Z9	X10	Y10	Z10	X11	Y11	Z11	X12	Y12	Z12	X13	Y13	Z13	X14	Y14	Z14	X15	Y15	Z15	X16	Y16	Z16	X17	Y17	Z17	X18	Y18	Z18	X19	Y19	Z19	X20	Y20	Z20	X21	Y21	Z21	X22	Y22	Z22	X23	Y23	Z23	X24	Y24	Z24	X25	Y25	Z25	X26	Y26	Z26	X27	Y27	Z27	X28	Y28	Z28	X29	Y29	Z29	X30	Y30	Z30	X31	Y31	Z31	X32	Y32	Z32	X33	Y33	Z33	X34	Y34	Z34	X35	Y35	Z35	X36	Y36	Z36	X37	Y37	Z37	X38	Y38	Z38	X39	Y39	Z39	X40	Y40	Z40	X41	Y41	Z41	X42	Y42	Z42	X43	Y43	Z43	X44	Y44	Z44	X45	Y45	Z45	X46	Y46	Z46	X47	Y47	Z47	X48	Y48	Z48	X49	Y49	Z49	X50	Y50	Z50	X51	Y51	Z51	

155	1.54000000	-90.70197	534.94949	-288.61399	-101.94155	398.61586	-270.30707	-336.77480	120.31320	-265.31172	-394.71957	88.84953	-326.67658	-223.93194	43.33887	-202.50685	-177.72755	64.26404	-250.90650	-65.42711	478.73184	-763.95973	-111.11518	304.00168	-780.37411	-367.49131	131.78288	-802.67776	-430.18749	86.02786	-741.01116	-277.88790	54.57880	-902.14222	-218.20409	66.26912	-853.79172	-162.26082	302.32779	-271.75487	-165.91349	434.67775	-255.85725	-229.63453	342.25190	-246.54701	-165.22912	367.24822	-810.76246	-247.67083	279.80371	-809.95407	-346.55638	652.31898	-332.68132	-237.85452	635.05506	-309.82058	-230.07812	569.36649	-289.91146	-366.85805	537.88934	-335.64911	-251.29236	519.76194	-308.95994	-301.10312	639.25058	-735.09057	-173.15073	597.07359	-745.25938	-342.44707	542.55038	-768.80810	-210.56525	503.58767	-787.62834	-391.43445	698.37316	-415.16536	-560.30206	759.01164	-530.78069	-378.38674	659.80107	-685.39191	-550.15427	752.40248	-622.18153	-195.16538	1104.42776	-598.93915	-108.73197	1061.96634	-449.49054	-110.09710	1048.71488	-733.85814	-117.31329	960.61819	-557.18111	-115.13070	953.23898	-601.18638	51.48855	944.33466	-337.78767	111.64241	801.41860	-293.63427	111.71583	873.34099	-238.35836	230.49515	969.86061	-390.35275	273.90017	1008.73691	-451.12423	303.95774	998.00595	-431.26629	88.86323	905.11300	-764.22345	115.56767	770.30649	-773.67511	152.14278	830.81431	-819.86284	239.01989	950.29677	-675.36811	255.58777	986.77343	-618.19368	284.20505	978.93594	-634.53242	-490.68942	620.78986	-451.93501	-481.12204	597.75752	-647.83020	-479.81137	618.50928	-458.10216	-459.96008	605.58019	-636.90219	
156	1.55000000	-88.90120	535.12467	-290.98811	-100.92138	398.74538	-272.00551	-336.30770	121.10991	-265.73421	-394.35361	89.52013	-327.23155	-223.91759	43.53354	-202.79191	-177.57285	64.32784	-250.96425	-64.14699	478.29102	-761.01531	-110.52613	303.69653	-778.32855	-367.27717	132.05458	-802.27930	-430.11943	86.16020	-740.80595	-277.69998	54.95624	-901.93946	-218.10931	66.33970	-853.65143	-161.62982	302.42877	-273.35128	-164.84221	435.06467	-257.61547	-228.42846	342.98351	-247.64193	-164.54793	367.10108	-808.33958	-247.13227	279.97776	-808.58517	-342.71421	656.78634	-334.35693	-234.26473	637.82243	-311.64200	-227.49188	572.09265	-291.57335	-364.84253	542.88796	-337.24560	-249.58420	522.88508	-310.61039	-296.82644	643.33886	-734.11224	-169.63225	598.75224	-743.38521	-339.68854	547.36854	-768.17872	-208.35127	505.94195	-786.06953	-389.06852	705.46254	-415.96862	-557.91861	767.10241	-531.83104	-376.07411	667.07222	-685.95274	-547.58327	760.42967	-623.15289	-195.27639	1114.60128	-600.00136	-107.93401	1074.25023	-451.54431	-109.41921	1060.97033	-734.01036	-115.22103	972.93792	-558.62950	-113.69312	965.20153	-602.21647	55.70931	963.85545	-340.44811	120.14110	823.17769	-294.34566	118.57061	895.71083	-240.06803	234.26669	994.55027	-392.66421	277.27131	1033.79670	-453.28657	307.15392	1024.38067	-433.79379	92.98475	924.75832	-764.02258	124.18763	790.45146	-772.48004	158.70374	851.97469	-819.57183	242.21396	974.55954	-676.05171	257.84434	1011.69567	-618.77464	286.59915	1004.92717	-635.41194	-488.85553	628.45805	-452.84693	-479.15497	605.46378	-648.74004	-478.01146	626.25518	-459.10491	-457.80113	613.20703	-637.67773	
157	1.56000000	-87.24284	535.48112	-293.12804	-99.90543	398.92167	-273.62863	-335.99839	121.82570	-266.48595	-394.00554	90.27919	-327.76600	-223.94590	43.78942	-203.04282	-177.42437	64.43538	-251.10002	-63.23850	478.12922	-758.45148	-110.27814	303.37183	-776.56479	-367.15690	132.29500	-802.13345	-430.11255	86.33346	-740.84477	-277.55804	55.22394	-901.84620	-218.01047	66.39353	-853.52449	-160.86312	302.69458	-274.67829	-163.85910	435.50652	-259.37674	-227.58608	343.51588	-249.12071	-164.17104	367.14016	-806.48692	-246.86952	280.23698	-807.43312	-338.76793	661.86219	-335.87564	-230.61276	640.79923	-313.40220	-225.06533	575.21323	-293.10209	-362.95721	548.57120	-338.79521	-247.96995	526.37330	-312.30101	-292.58005	647.89206	-733.19611	-166.10882	600.90008	-741.69529	-337.02826	552.89533	-767.84939	-206.46230	508.77537	-784.63651	-386.83900	713.88278	-417.04732	-555.45035	775.97094	-532.77443	-373.54061	675.65366	-686.63477	-544.99513	769.28897	-624.07329	-195.44706	1125.74352	-601.14159	-107.26910	1087.49932	-453.77115	-108.87026	1074.30512	-734.14208	-113.32673	986.25492	-559.79255	-112.24065	978.22112	-603.28757	59.33856	984.76396	-342.64831	128.17046	846.47917	-294.22795	124.65575	919.60470	-241.07271	237.28468	1020.66917	-394.34752	280.07846	1060.25819	-454.80596	309.60530	1052.02971	-435.99155	96.84652	945.65475	-764.22381	132.43449	811.81442	-771.29798	164.86757	874.62375	-820.03647	244.99519	1000.18957	-677.46572	259.89623	1038.05623	-620.17302	288.62367	1032.23997	-636.91740	-486.70783	637.11237	-453.83583	-476.83305	614.21961	-649.73180	-475.85260	635.06738	-460.27061	-455.43683	622.01857	-638.55397	
158	1.57000000	-85.77831	535.77376	-295.24775	-99.10568	399.07289	-275.44328	-335.84733	122.41578	-267.21846	-393.70101	90.87442	-328.34513	-224.00439	44.09276	-203.21965	-177.34390	64.58050	-251.30856	-62.65194	478.33814	-756.30467	-110.61974	303.20415	-775.30015	-367.16178	132.46259	-802.14017	-430.16185	86.50837	-741.02365	-277.47721	55.36905	-901.82812	-217.92189	66.45170	-853.40580	-160.06899	302.97864	-275.94036	-162.99012	435.80352	-261.39488	-226.91920	343.83886	-250.92403	-164.03045	367.45296	-805.33762	-246.80056	280.52524	-806.65064	-334.68357	667.34748	-336.93456	-226.74355	643.91570	-314.84923	-222.69153	578.55808	-294.57625	-360.97799	554.55895	-340.57830	-246.24633	530.18032	-313.87317	-288.36993	652.94871	-732.59799	-162.73841	603.46882	-740.43717	-334.51492	559.01525	-767.75475	-204.93781	512.12892	-783.48276	-384.73085	723.35854	-418.29190	-552.93548	785.48661	-533.51412	-370.88940	685.31646	-687.47476	-542.41488	778.88056	-624.99787	-195.70337	1137.80609	-602.27275	-106.81797	1101.64123	-456.05704	-108.43080	1088.47549	-734.26657	-111.66456	1000.22631	-560.75406	-110.95621	991.80609	-604.04628	62.29626	1006.77101	-344.32618	135.31371	871.37981	-293.91397	129.91728	945.16355	-241.32157	239.46055	1048.15741	-395.45977	281.41836	1088.52637	-456.13545	311.06178	1080.91420	-437.44873	100.39166	967.75840	-764.73686	140.49696	834.94309	-771.66074	170.71476	898.83776	-821.21932	247.40698	1027.11096	-679.40666	261.58693	1065.64349	-622.02420	290.37941	1060.85104	-638.96502	-484.33899	646.55933	-454.89098	-474.29040	623.86706	-650.80141	-473.43193	644.65268	-461.54862	-452.95987	631.79682	-639.57345	
